<svg height="1200" viewBox="0 0 840 1200" width="840" xmlns="http://www.w3.org/2000/svg"><path d="m500.660087 453.470684h-163.945709c-21.850466 0-37.898919-6.317941-48.155906-19.027893-10.359793-12.707209-15.500149-26.407511-15.500149-41.150288 0-14.712599 5.140356-28.412902 15.500149-41.122854 10.256987-12.709952 26.30544-19.09922 48.155906-19.09922h273.828058c100.215845 0 151.635217-55.478818 154.210667-166.565392v-6.007942c0-.53221-.052722-1.02327-.052722-1.552737v-158.81267708h-148.408655c-1.296951-.01920347-2.50164-.13168092-3.819679-.13168092h-254.526683c-214.416093 0-333.7540599 100.557586-357.945364 301.713909 13.1803989 5.623873 100.189484 43.410811 121.417834 69.667438 23.867067-1.34973 39.459478 14.90189 44.230783 23.474867 9.128744 1.794153 7.818612 10.838986 7.818612 10.838986s-3.904034 24.81088-11.282421 31.586961c4.784485 8.112093-1.739813 11.727832-1.739813 11.727832s-3.034127 14.443751 14.748867 28.884758c17.353313 8.12581 28.62519 4.510072 49.455492 30.684398 12.558284 3.615739 18.196859 9.947396 18.196859 9.947396s2.177402 14.430035 16.488679 24.363714c13.886868 18.951079 7.378387 25.26902 25.161381 55.072802 15.162731 7.20953 18.637084 16.696043 11.269241 28.871042-5.198349 4.510071-32.526588 60.041013-74.603693 55.061828-17.216237 11.667478-48.100548 16.427195-70.828828 26.322467 49.587297 25.472028 111.063313 38.223131 184.45441 38.223131h163.869263c21.903187 0 37.946369 6.392011 48.232352 19.126654 10.256986 12.707208 15.399978 26.382821 15.399978 41.122854 0 14.742776-5.142992 28.415645-15.399978 41.125597-10.285983 12.734643-26.329165 19.04984-48.232352 19.04984h-331.624107c-100.2422058 0-151.732752 55.541915-154.2317556 166.554416v1.25371h-.197706v164.89744h139.9442026c4.143918.19203 8.248294.42796 12.582009.42796h316.22413c239.047622 0 358.646561-127.71129 358.646561-383.27378 0-242.114576-113.145816-363.255536-339.339913-363.255536" fill="#48a2a2" fill-rule="evenodd"/></svg>
