<?xml version="1.0" encoding="utf-8"?>
<!-- Generator: Adobe Illustrator 21.1.0, SVG Export Plug-In . SVG Version: 6.00 Build 0)  -->
<svg version="1.1" id="Laag_1" xmlns="http://www.w3.org/2000/svg" xmlns:xlink="http://www.w3.org/1999/xlink" x="0px" y="0px"
	 viewBox="0 0 96 69" style="enable-background:new 0 0 96 69;" xml:space="preserve">
<style type="text/css">
	.st0{filter:url(#Adobe_OpacityMaskFilter);}
	.st1{fill:#FFFFFF;}
	.st2{mask:url(#b);fill:#009FE4;}
	.st3{filter:url(#Adobe_OpacityMaskFilter_1_);}
	.st4{mask:url(#d);fill:#009FE4;}
	.st5{fill:#004388;}
</style>
<g>
	<g transform="translate(187.931 15)">
		<defs>
			<filter id="Adobe_OpacityMaskFilter" filterUnits="userSpaceOnUse" x="-149.7" y="-1.8" width="57.1" height="49.4">
				<feColorMatrix  type="matrix" values="1 0 0 0 0  0 1 0 0 0  0 0 1 0 0  0 0 0 1 0"/>
			</filter>
		</defs>
		<mask maskUnits="userSpaceOnUse" x="-149.7" y="-1.8" width="57.1" height="49.4" id="b">
			<g class="st0">
				<path id="a" class="st1" d="M-92.6-1.8h-57.1v49.4h57.1V-1.8L-92.6-1.8z"/>
			</g>
		</mask>
		<path class="st2" d="M-92.6,22.9c0-13.6-11-24.6-24.6-24.7c0,0,0,0-0.1,0h-8c-1.4,0-2.5,1.1-2.5,2.5s1.1,2.5,2.5,2.5h7.9
			c10.9,0,19.7,8.8,19.7,19.7c0,10.9-8.8,19.7-19.7,19.7h-27.4V38h-5v9.6h32.5v0C-103.6,47.6-92.6,36.5-92.6,22.9"/>
	</g>
	<g transform="translate(150 15)">
		<defs>
			<filter id="Adobe_OpacityMaskFilter_1_" filterUnits="userSpaceOnUse" x="-149.6" y="-1.8" width="57.1" height="49.4">
				<feColorMatrix  type="matrix" values="1 0 0 0 0  0 1 0 0 0  0 0 1 0 0  0 0 0 1 0"/>
			</filter>
		</defs>
		<mask maskUnits="userSpaceOnUse" x="-149.6" y="-1.8" width="57.1" height="49.4" id="d">
			<g class="st3">
				<path id="c" class="st1" d="M-92.4-1.8h-57.1v49.4h57.1L-92.4-1.8L-92.4-1.8z"/>
			</g>
		</mask>
		<path class="st4" d="M-149.6,22.9c0,13.6,11,24.6,24.6,24.7c0,0,0,0,0.1,0h8c1.4,0,2.5-1.1,2.5-2.5c0-1.4-1.1-2.5-2.5-2.5h-7.9
			c-10.9,0-19.7-8.8-19.7-19.7c0-10.9,8.8-19.7,19.7-19.7h27.4v4.6h5v-9.6h-32.5v0C-138.5-1.7-149.6,9.3-149.6,22.9"/>
	</g>
	<path class="st5" d="M26,40.1l-4.7-12.4h-5.7l8.1,20.4h3.9l8.4-20.4h-5.4L26,40.1z M52.6,40.7l-7.9-13h-6.4v20.4h5V34.8l8.1,13.3
		h6.2V27.7h-5V40.7z M71.9,35.7v4.7h3.5v2.7c-0.5,0.2-0.9,0.4-1.4,0.5c-0.7,0.2-1.4,0.3-2.4,0.3c-0.9,0-1.7-0.2-2.4-0.4
		c-0.7-0.3-1.3-0.7-1.8-1.2c-0.5-0.5-0.9-1.2-1.2-1.9c-0.3-0.7-0.4-1.5-0.4-2.4c0-0.9,0.1-1.7,0.4-2.4c0.3-0.7,0.7-1.4,1.2-1.9
		c0.5-0.5,1.1-1,1.8-1.2c0.7-0.3,1.5-0.4,2.4-0.4c1.1,0,2,0.2,2.7,0.4c0.7,0.3,1.3,0.7,1.9,1.3l0.2,0.2l3.5-3.8l-0.2-0.2
		c-1-1-2.3-1.7-3.6-2c-1.4-0.4-2.8-0.6-4.4-0.6c-1.6,0-3,0.3-4.4,0.7c-1.3,0.5-2.5,1.2-3.5,2.1c-1,0.9-1.7,2.1-2.3,3.4
		c-0.5,1.3-0.8,2.8-0.8,4.4c0,1.6,0.3,3.1,0.8,4.4c0.5,1.3,1.3,2.5,2.3,3.4c1,0.9,2.1,1.6,3.5,2.1c1.3,0.5,2.8,0.7,4.4,0.7
		c1.5,0,2.9-0.2,4.3-0.5c1.4-0.3,2.8-0.8,4.1-1.5l0.2-0.1V35.7L71.9,35.7L71.9,35.7z"/>
</g>
</svg>
