<?xml version="1.0" encoding="utf-8"?>
<!-- Generator: Adobe Illustrator 22.1.0, SVG Export Plug-In . SVG Version: 6.00 Build 0)  -->
<svg width="350" version="1.1" id="Ebene_1" xmlns="http://www.w3.org/2000/svg" xmlns:xlink="http://www.w3.org/1999/xlink" x="0px" y="0px"
	 viewBox="0 0 371.6 89.6" style="enable-background:new 0 0 371.6 89.6;" xml:space="preserve">
<style type="text/css">
	.st0{fill:#0A2028;}
	.st1{clip-path:url(#SVGID_2_);fill:#50B3E8;}
	.st2{clip-path:url(#SVGID_4_);}
	.st3{opacity:0.9;}
	.st4{fill:#0079B4;}
	.st5{clip-path:url(#SVGID_6_);}
	.st6{fill:#2199D4;}
</style>
<g>
	<g>
		<path class="st0" d="M147.2,37.9v5.3c0,1.9-1.5,3.9-4,3.9h-23.7v5c0,6.1,3.5,10.8,10.7,10.8c4,0,7.2-0.9,10.2-2.1
			c1-0.4,1.7-0.5,2.2-0.5c1.7,0,2.9,1.3,2.9,2.8c0,1.2-0.6,2.1-1.7,2.7c-4,1.8-9.6,2.9-13.6,2.9c-10.7,0-17-7-17-16.9V37.9
			c0-10.3,6.6-16.9,17-16.9C140.8,21,147.2,27.7,147.2,37.9z M119.5,37.6v3.7H141v-3.5c0-6.9-3.7-11-10.7-11
			C123.2,26.8,119.5,31,119.5,37.6z"/>
		<path class="st0" d="M193.2,37.4v28.1c0,1.8-1.4,3.1-3.1,3.1c-1.8,0-3.1-1.3-3.1-3.1V37.3c0-6.7-3.8-10.5-10.7-10.5
			c-3.8,0-7.2,0.6-10.7,1.7v37.1c0,1.8-1.3,3.1-3.1,3.1c-1.7,0-3.1-1.3-3.1-3.1V27.2c0-1.9,1-3.2,3.1-3.9c4.5-1.4,8.8-2.3,13.8-2.3
			C187.5,21,193.2,27.1,193.2,37.4z"/>
		<path class="st0" d="M212.9,5.7v18.7c3.6-2.1,8-3.4,11.6-3.4c10.3,0,16,5.9,16,16.8v27.8c0,1.8-1.4,3.1-3.1,3.1
			c-1.8,0-3.1-1.3-3.1-3.1V37.3c0-7-3.9-10.5-10.5-10.5c-3.8,0-7.3,1.3-10.9,3.9v34.8c0,1.8-1.3,3.1-3.1,3.1c-1.7,0-3.1-1.3-3.1-3.1
			V5.7c0-1.8,1.4-3.1,3.1-3.1C211.6,2.6,212.9,3.9,212.9,5.7z"/>
		<path class="st0" d="M284.9,34.7v28.1c0,1.7-0.8,3.1-2.7,3.8c-3.7,1.4-8.5,2.1-13.2,2.1c-10.8,0-18.1-4-18.1-14s8.4-13.9,18-13.9
			h9.7v-6.1c0-4.7-3.5-7.9-9.7-7.9c-3.3,0-6.3,0.7-9.2,2.1c-1.1,0.6-2,1-3.1,1c-1.4,0-2.8-1.1-2.8-2.8c0-1.1,0.5-1.9,1.5-2.6
			c3.2-1.8,7.9-3.5,13.4-3.5C277.7,21,284.9,25.5,284.9,34.7z M268.8,46.5c-6.7,0-11.6,2.3-11.6,8.3c0,6.5,4.9,8.2,11.8,8.2
			c3.2,0,6.4-0.5,9.6-1.5v-15H268.8z"/>
		<path class="st0" d="M329,24.1v0.7c0,0.3-0.1,0.5-0.2,0.7l-13.6,40.3c-0.7,2.1-2.4,2.8-4.1,2.8s-3.4-0.7-4.1-2.8l-13.5-40.3
			c-0.2-0.5-0.3-0.9-0.3-1.5c0-1.6,0.9-3,3-3c1.6,0,2.6,0.7,3,2.3L311,59.6l11.8-36.3c0.5-1.6,1.5-2.3,3-2.3
			C328.1,21,329,22.5,329,24.1z"/>
		<path class="st0" d="M371.6,38.7v12.4c0,11-6.7,17.6-17.8,17.6c-10.9,0-17.8-6.5-17.8-17.6V38.7c0-11.1,6.8-17.7,17.8-17.7
			C364.9,21,371.6,27.6,371.6,38.7z M342.3,38.3v13.3c0,7.3,4.7,11.4,11.6,11.4c7,0,11.6-4,11.6-11.4V38.3c0-7.3-4.6-11.5-11.6-11.5
			C347,26.8,342.3,30.9,342.3,38.3z"/>
	</g>
	<g>
		<g>
			<defs>
				<path id="SVGID_1_" d="M0,25.3c0-1.9,1.3-4.2,2.9-5.1L36.7,0.7c1.6-0.9,4.3-0.9,5.9,0l33.8,19.5c1.6,0.9,2.9,3.2,2.9,5.1v39
					c0,1.9-1.3,4.2-2.9,5.1L42.6,88.9c-1.6,0.9-4.3,0.9-5.9,0L2.9,69.4C1.3,68.5,0,66.2,0,64.3V25.3z"/>
			</defs>
			<clipPath id="SVGID_2_">
				<use xlink:href="#SVGID_1_"  style="overflow:visible;"/>
			</clipPath>
			<path class="st1" d="M40.9,63.3c-0.4,0.2-0.8,0.3-1.3,0.3c-0.4,0-0.9-0.1-1.2-0.3l-13.8-7.9c-0.8-0.4-1.3-1.3-1.3-2.2V37.1
				c0-0.9,0.5-1.7,1.2-2.1l14.6-9c1.2-0.7,2.7-0.4,3.4,0.8c0.7,1.2,0.3,2.7-0.8,3.4l-13.4,8.2v13.3l11.2,6.5l39.8-23.3v-9.6
				c0-1.9-1.3-4.2-2.9-5.1L42.6,0.7c-1.6-0.9-4.3-0.9-5.9,0L2.9,20.2C1.3,21.1,0,23.4,0,25.3v39c0,1.9,1.3,4.2,2.9,5.1l33.8,19.5
				c1.6,0.9,4.3,0.9,5.9,0l33.8-19.5c1.6-0.9,2.9-3.2,2.9-5.1V40.7L40.9,63.3z"/>
		</g>
		<g>
			<defs>
				<path id="SVGID_3_" d="M0,25.3c0-1.9,1.3-4.2,2.9-5.1L36.7,0.7c1.6-0.9,4.3-0.9,5.9,0l33.8,19.5c1.6,0.9,2.9,3.2,2.9,5.1v39
					c0,1.9-1.3,4.2-2.9,5.1L42.6,88.9c-1.6,0.9-4.3,0.9-5.9,0L2.9,69.4C1.3,68.5,0,66.2,0,64.3V25.3z"/>
			</defs>
			<clipPath id="SVGID_4_">
				<use xlink:href="#SVGID_3_"  style="overflow:visible;"/>
			</clipPath>
			<g class="st2">
				<g class="st3">
					<path class="st4" d="M39.6,45L39.6,45l-11.2-6.5l0,0v13.2l0,0l11.2,6.4l0,0V45z"/>
				</g>
				<g class="st3">
					<path class="st4" d="M38.4,63.3L38.4,63.3l-13.8-7.9l0,0l-1.2-2.1l0,0V37.1l0,0l0.3-1.2l0,0L0,22.2l0,0v45.6l0,0l39.6,22.8l0,0
						v-27l0,0L38.4,63.3z"/>
				</g>
			</g>
		</g>
		<g>
			<defs>
				<path id="SVGID_5_" d="M0,25.3c0-1.9,1.3-4.2,2.9-5.1L36.7,0.7c1.6-0.9,4.3-0.9,5.9,0l33.8,19.5c1.6,0.9,2.9,3.2,2.9,5.1v39
					c0,1.9-1.3,4.2-2.9,5.1L42.6,88.9c-1.6,0.9-4.3,0.9-5.9,0L2.9,69.4C1.3,68.5,0,66.2,0,64.3V25.3z"/>
			</defs>
			<clipPath id="SVGID_6_">
				<use xlink:href="#SVGID_5_"  style="overflow:visible;"/>
			</clipPath>
			<g class="st5">
				<g>
					<path class="st6" d="M40.9,63.3L40.9,63.3c0,0-0.8,0.3-1.3,0.3l0,0l0,0v27.1l0,0l39.6-22.8l0,0v-27l0,0L40.9,63.3z"/>
				</g>
				<g>
					<path class="st6" d="M39.6,58.2L39.6,58.2L39.6,58.2L39.6,58.2l39.6-23.1l0,0V22.2l0,0L39.6,45.1l0,0V58.2z"/>
				</g>
			</g>
		</g>
	</g>
</g>
</svg>
